<svg xmlns="http://www.w3.org/2000/svg" xmlns:xlink="http://www.w3.org/1999/xlink" width="500" zoomAndPan="magnify" viewBox="0 0 375 374.999991" height="500" preserveAspectRatio="xMidYMid meet" version="1.0"><defs><g/><clipPath id="id1"><path d="M 4.347656 4.347656 L 370.652344 4.347656 L 370.652344 370.652344 L 4.347656 370.652344 Z M 4.347656 4.347656 " clip-rule="nonzero"/></clipPath></defs><rect x="-37.5" width="450" fill="#ffffff" y="-37.499999" height="449.999989" fill-opacity="1"/><rect x="-37.5" width="450" fill="#ffffff" y="-37.499999" height="449.999989" fill-opacity="1"/><rect x="-37.5" width="450" fill="#ffffff" y="-37.499999" height="449.999989" fill-opacity="1"/><rect x="-37.5" width="450" fill="#ffffff" y="-37.499999" height="449.999989" fill-opacity="1"/><g clip-path="url(#id1)"><path fill="#001514" d="M 187.5 4.347656 C 86.347656 4.347656 4.347656 86.347656 4.347656 187.5 C 4.347656 288.652344 86.347656 370.652344 187.5 370.652344 C 288.652344 370.652344 370.652344 288.652344 370.652344 187.5 C 370.652344 86.347656 288.652344 4.347656 187.5 4.347656 " fill-opacity="1" fill-rule="nonzero"/></g><g fill="#ffffff" fill-opacity="1"><g transform="translate(124.428599, 232.031539)"><g><path d="M 35.203125 -18.25 C 35.203125 -15.5625 35.820312 -14.21875 37.0625 -14.21875 C 39.164062 -14.21875 41.753906 -14.84375 44.828125 -16.09375 L 47.984375 -8.046875 C 39.171875 -1.535156 30.644531 1.71875 22.40625 1.71875 C 17.625 1.71875 13.816406 0.351562 10.984375 -2.375 C 8.160156 -5.101562 6.75 -8.957031 6.75 -13.9375 C 6.75 -18.914062 9.191406 -30.191406 14.078125 -47.765625 C 18.960938 -65.335938 21.644531 -77.570312 22.125 -84.46875 C 22.125 -86.09375 21.597656 -87.863281 20.546875 -89.78125 C 19.492188 -91.695312 18.488281 -93.226562 17.53125 -94.375 L 15.953125 -96.109375 L 16.234375 -98.984375 C 22.265625 -100.992188 32.941406 -102 48.265625 -102 C 49.796875 -99.125 50.5625 -96.054688 50.5625 -92.796875 C 50.5625 -87.242188 48 -75.128906 42.875 -56.453125 C 37.757812 -37.773438 35.203125 -25.039062 35.203125 -18.25 Z M 35.203125 -18.25 "/></g></g></g><g fill="#ffffff" fill-opacity="1"><g transform="translate(176.286251, 232.031539)"><g><path d="M 37.0625 -101.28125 L 70.96875 -100.421875 C 75.851562 -100.421875 79.632812 -100.515625 82.3125 -100.703125 C 82.601562 -98.984375 82.75 -96.875 82.75 -94.375 C 82.75 -91.882812 82.078125 -89.96875 80.734375 -88.625 C 79.390625 -87.289062 77.046875 -86.625 73.703125 -86.625 L 51.71875 -88.34375 C 50.28125 -88.34375 49.082031 -88.296875 48.125 -88.203125 C 47.9375 -84.566406 45.925781 -73.9375 42.09375 -56.3125 C 47.550781 -56.789062 53.007812 -57.03125 58.46875 -57.03125 C 63.925781 -57.03125 67.898438 -56.597656 70.390625 -55.734375 C 70.003906 -51.328125 69.09375 -47.785156 67.65625 -45.109375 L 66.9375 -43.671875 C 64.257812 -44.535156 60.164062 -44.96875 54.65625 -44.96875 C 49.15625 -44.96875 44.101562 -44.773438 39.5 -44.390625 C 35.957031 -27.242188 34.1875 -14.078125 34.1875 -4.890625 L 34.1875 -2.875 C 29.113281 -0.382812 20.207031 0.859375 7.46875 0.859375 L 5.890625 0.859375 C 5.890625 -7.566406 7.992188 -21.738281 12.203125 -41.65625 C 16.421875 -61.582031 18.960938 -75.519531 19.828125 -83.46875 C 19.828125 -85.382812 19.300781 -87.367188 18.25 -89.421875 C 17.195312 -91.484375 16.140625 -93.085938 15.078125 -94.234375 L 13.5 -95.8125 L 13.796875 -99.125 C 20.878906 -100.5625 28.632812 -101.28125 37.0625 -101.28125 Z M 37.0625 -101.28125 "/></g></g></g></svg>